<svg xmlns="http://www.w3.org/2000/svg" xmlns:xlink="http://www.w3.org/1999/xlink" width="370" height="136" viewBox="0 0 370 136"><defs><clipPath id="a"><rect width="99.407" height="48.902" fill="none"/></clipPath></defs><g transform="translate(-8269 -6395)"><g transform="translate(-11008 -12950)"><rect width="370" height="136" transform="translate(19277 19345)" fill="none"/><rect width="370" height="136" transform="translate(19277 19345)" fill="none"/><g transform="translate(19481 18737.297)"><g transform="translate(98 676.204)"><path d="M33.75,0v33.75L0,0Z" transform="translate(33.751 0)" fill="#1800e7"/><path d="M67.5,67.5H33.751L0,33.751V0H0Z" transform="translate(-0.001 -0.001)" fill="#1800e7"/><path d="M124.631,124.63H90.88V90.88Z" transform="translate(-90.88 -57.131)" fill="#ff5e00"/><path d="M33.751,0,67.5,33.749V67.5L0,0Z" transform="translate(0.001 0)" fill="#ff5e00"/></g><g transform="translate(98 608.704)"><path d="M0,0v33.75L33.751,0Z" transform="translate(0 0)" fill="#180092"/><path d="M0,67.5H33.752L67.5,33.751V0h0Z" transform="translate(-0.001 -0.001)" fill="#180092"/><path d="M90.88,124.63h33.751V90.88Z" transform="translate(-57.13 -57.131)" fill="#fff"/><path d="M33.751,0,0,33.749V67.5L67.5,0Z" transform="translate(0 0)" fill="#fff"/></g></g></g><g transform="translate(8293 6439.795)"><g clip-path="url(#a)"><path d="M0,65.423V55.912H36.9v9.511H25.8a.99.99,0,0,0-.99.99V83.928H12.088V66.412a.99.99,0,0,0-.99-.99Z" transform="translate(0 -35.026)" fill="#1800e6"/><path d="M133.048,83.928l7.783-14.041a.66.66,0,0,1,1.238.319V83.928h12.166V55.912H138.482a1.315,1.315,0,0,0-1.149.68l-6.715,12.115a.66.66,0,0,1-1.154,0l-6.715-12.115a1.315,1.315,0,0,0-1.149-.68H105.847V83.928h12.166V70.205a.66.66,0,0,1,1.238-.319l7.783,14.041Z" transform="translate(-66.308 -35.026)" fill="#1800e6"/><path d="M200.31,20.757c12.607-8.22,24.581-6.144,24.581-6.144-1.508-3.259-8.9-7.9-17.036-2.437a26.741,26.741,0,0,0-7.545,8.581" transform="translate(-125.484 -6.047)" fill="#ef3c00"/><path d="M89.743,7.949c16.648-2.731,29.246-1.567,31.984,2.938,1.916,3.153-3.346,8.01-3.346,8.01,8.817-1.032,13.545-6.6,12.721-11.25C130.319,3.23,125.121,0,115.652,0A44.753,44.753,0,0,0,89.743,7.949" transform="translate(-56.22)" fill="#ff5e00"/></g></g></g></svg>